<?xml version="1.0" encoding="utf-8"?>
<!-- Designed by Vexels.com - 2016 All Rights Reserved - https://vexels.com/terms-and-conditions/  -->

<svg version="1.1" id="Layer_1" xmlns="http://www.w3.org/2000/svg" xmlns:xlink="http://www.w3.org/1999/xlink" x="0px" y="0px"
	 width="1200px" height="1200px" viewBox="0 0 1200 1200" enable-background="new 0 0 1200 1200" xml:space="preserve">
<g> 
	<g>
		<path fill="#212227" d="M340.429,499.73c-1.018-1.056-3.355-1.902-3.355-1.902c0.734-1.103,0.981-3.553,0.981-3.553
			c7.09-0.413,9.238-1.267,9.889-1.786c-14.169-1.775-30.048-2.675-47.199-2.675c-16.057,0-27.753,0.805-29.861,0.959
			c2.226,1.462,9.931,2.274,9.931,2.274l0.858,4.29c-1.115,0.062-1.915,0.405-2.434,0.731c1.802-0.02,6.709-0.069,13.065-0.069
			C308.709,498,330.208,498.306,340.429,499.73z M334.812,492.107h1.729v5.065h-1.729V492.107z M331.43,491.563h1.727v5.133h-1.727
			V491.563z M327.942,491.289h1.727v5.101h-1.727V491.289z M324.079,491.322h1.73v4.963h-1.73V491.322z M320.83,491.322h1.732v4.963
			h-1.732V491.322z M317.308,491.322h1.731v4.963h-1.731V491.322z M313.529,491.322h1.729v4.963h-1.729V491.322z M309.496,491.322
			h1.73v4.963h-1.73V491.322z M305.464,491.322h1.727v4.963h-1.727V491.322z M301.427,491.322h1.731v4.963h-1.731V491.322z
			 M297.396,491.322h1.73v4.963h-1.73V491.322z M293.365,491.322h1.729v4.963h-1.729V491.322z M284.358,497.172h-1.731v-5.065h1.731
			V497.172z M287.742,496.697h-1.727v-5.133h1.727V496.697z M291.231,496.389h-1.729v-5.101h1.729V496.389z"/>
		<path fill="#8EAEC7" d="M347.698,491.234c-1.545-1.304-5.964-2.476-5.964-2.476c0.122-4.291-2.572-4.658-2.572-4.658
			l-19.859-7.722v-1.838l2.94-3.924h-3.433v-2.819h-6.615v-3.677h-1.961l-1.47-22.677l-0.859,22.677h-0.981v3.799h-7.478v3.129
			h-2.635l3.371,3.367v1.841l-19.366,6.371c-3.187,0.858-3.554,4.902-3.554,4.902c-2.66,0.343-4.99,1.398-6.168,2.007
			c2.816-0.2,14.255-0.943,29.661-0.943C317.796,488.595,333.581,489.486,347.698,491.234z M337.138,485.27h2.038v2.206h-2.038
			V485.27z M333.995,484.846h2.039v2.207h-2.039V484.846z M330.937,484.334h2.038v2.209h-2.038V484.334z M327.71,483.994h2.039v2.21
			h-2.039V483.994z M324.654,483.654h2.036v2.209h-2.036V483.654z M321.508,483.315h2.04v2.208h-2.04V483.315z M318.28,483.059
			h2.041v2.211h-2.041V483.059z M315.139,482.89h2.038v2.211h-2.038V482.89z M311.912,482.89h2.039v2.211h-2.039V482.89z
			 M308.684,482.89h2.04v2.211h-2.04V482.89z M305.458,482.89h2.038v2.211h-2.038V482.89z M302.23,482.89h2.037v2.211h-2.037V482.89
			z M282.268,486.713h-2.036v-2.207h2.036V486.713z M285.411,486.285h-2.036v-2.206h2.036V486.285z M288.472,485.778h-2.041v-2.209
			h2.041V485.778z M291.698,485.438h-2.038v-2.208h2.038V485.438z M294.755,485.101h-2.039v-2.211h2.039V485.101z M297.813,485.101
			h-2.04v-2.211h2.04V485.101z M299.001,482.89h2.038v2.211h-2.038V482.89z"/>
		<path fill="#8EAEC7" d="M270.275,489.984c0,0,0.315-0.186,0.819-0.446c-0.425,0.031-0.663,0.049-0.678,0.05l-0.482,0.039
			l0.097,1.215l0.482-0.04c0.013-0.001,0.162-0.012,0.372-0.028C270.512,490.529,270.275,490.266,270.275,489.984z"/>
		<path fill="#8EAEC7" d="M347.945,492.49c0.024,0.003,0.049,0.006,0.072,0.009l0.475,0.06l0.162-1.21l-0.481-0.06
			c-0.158-0.019-0.318-0.037-0.475-0.054c0.327,0.273,0.531,0.554,0.531,0.832C348.229,492.066,348.262,492.238,347.945,492.49z"/>
		<path fill="#8EAEC7" d="M279.239,498.068c-0.48,0.006-0.749,0.01-0.762,0.01l-0.481,0.008l0.05,1.214l0.479-0.004
			c0.08-0.001,0.23-0.004,0.36-0.006c-0.179-0.195-0.316-0.394-0.395-0.604C278.49,498.686,278.73,498.387,279.239,498.068z"/>
		<path fill="#8EAEC7" d="M340.375,500.95c0.131,0.018,0.284,0.036,0.41,0.053l0.477,0.072l0.181-1.204l-0.479-0.071
			c-0.165-0.024-0.362-0.047-0.534-0.071c0.209,0.219,0.383,0.442,0.445,0.673C340.874,500.403,340.762,500.625,340.375,500.95z"/>
		<path fill="#8EAEC7" d="M1038.49,730.114l-3.314,0.088c-7.576-0.023-16.214-10.825-16.214-10.825l-7.586,7.58h-10.827v-14.076
			h-42.233c0,0-2.008,2.841-3.791,6.473v-31.926L939.9,702.051v18.408h-20.24v-20.02h-9.461v-24.559h1.35v-8.712h-6.607v-1.825
			h0.888v-1.788h-11.086v-0.889h-2.164v0.763h-2.55v-3.438h-2.419v-1.019h-12.104v1.398h-8.534v2.55h-5.989v1.275h-4.971v3.948
			h-6.112v3.567h1.145v2.68h-1.655v2.674h1.527c0,0-0.445,7.995,0,8.443c0.444,0.442-31.214,0-31.214,0l1.399,2.164v5.986h-2.631
			v-14.313h-21.997v15.586h-8.879v-8.534h-16.433v-6.882h-2.548v-0.761h-3.694v1.275h-7.644v6.496h-13.25v-18.728l1.783-3.823
			h-5.477v-3.691l1.4-2.935h-12.865v-6.623h-12.106v6.498h-6.116v-3.313h-2.036v3.313h-2.675v1.017h-4.715l1.144,2.168v4.334
			l-1.02,0.377l1.02,1.659v19.11h-2.293v-32.742h-3.054v-1.658h-2.167v-2.291h-27.01v-25.097l-34.529,0.503v22.169h-2.929
			l-3.821,0.132v6.305h-10.385l-0.825-0.827h-3.444v-4.207h-5.859v1.657h-1.527v-1.273h-5.094v2.674h-8.794v18.346h-3.567v1.658
			h-2.548v5.093h-1.401v5.61h-1.912v2.16h0.763v2.424h-9.297v-22.551h-2.675v-2.418h-9.109v-1.323h-2.268v-1.04h1.136v-1.198h-1.136
			v-1.067h1.136v-1.787h-1.136v-1.167h1.165v-1.231h-1.165v-1.036h1.311v-1.747h-2.677v-5.479h-8.025l-2.677-4.587h-8.914v-1.656
			h-4.588v-1.912h-3.696V625.24l-7.771-3.95h-16.563l-5.225,3.311v-28.024l-1.145-0.894v-7.642l-0.892-0.766h-7.134v-5.733
			l-1.529-1.527h-8.537v8.026h-6.117v13.122h-4.965v1.147h-2.169v6.498h-8.152v-1.273h-4.332v-18.601h-15.416v-31.342h-6.498v-1.276
			l-1.657-1.655l-7.135-8.028v-3.822h-3.95v3.822l-8.024,8.283v2.548h-6.498v25.351l-1.018,0.511v67.015h-5.989v-1.529h-4.458
			v-69.563l-2.548-1.274h-32.234v39.88h-13.505l-3.95-3.444l-4.587,0.514v1.779h-4.077v-28.409h-13.119v-29.672
			c0-7.356,6.863-54.788,6.863-54.788c9.082-0.269,12.285-1.987,13.35-2.884c-10.654-1.505-34.628-1.733-48.09-1.733
			c-6.795,0-11.859,0.054-13.4,0.073c2.519,2.752,14.067,3.932,14.067,3.932c-0.369,0.736,1.963,13.359,1.963,13.359
			c2.449,12.133,6.616,49.638,6.616,49.638v28.437c-0.462,13.322-5.225,48.281-5.824,52.629h-3.069v10.701h-13.631v12.608h-7.01
			v3.955h-2.421v-1.657h-1.781v-48.414h0.892v-1.02h-4.46v-6.498h-10.83v-1.909h-7.385v1.909H231.74v6.755h-2.293v51.214h-16.18
			l-0.024,26.042h-13.012v-9.748h-23.828v20.052l-7.58-2.726l-7.581,7.58v-20.58h-11.912v22.748h-14.078v7.582l-60.335,13.765
			L50,757.842l80.456,0.713H1150L1038.49,730.114z M311.284,540.742l0.035-1.369h1.103v3.397h-0.794
			C311.479,542.011,311.364,541.29,311.284,540.742z M410.495,592.654v6.502h-1.789v-6.502H410.495z M408.706,591.26v-6.507h1.789
			v6.507H408.706z M408.72,654.7h2.42v1.147h-2.42V654.7z M408.72,653.236v-1.146h2.42v1.146H408.72z M408.72,650.628v-1.145h2.42
			v1.145H408.72z M408.72,642.812v-1.151h2.42v1.151H408.72z M408.72,640.202v-1.146h2.42v1.146H408.72z M408.72,637.594v-1.144
			h2.42v1.144H408.72z M408.72,634.99v-1.146h2.42v1.146H408.72z M408.72,632.382v-1.143h2.42v1.143H408.72z M408.72,621.957v-1.149
			h2.42v1.149H408.72z M408.72,616.741v-1.148h2.42v1.148H408.72z M408.72,614.137v-1.15h2.42v1.15H408.72z M408.72,611.527v-1.147
			h2.42v1.147H408.72z M408.72,603.703v-1.142h2.42v1.142H408.72z M408.72,601.099v-1.142h2.42v1.142H408.72z M410.622,569.726
			h-4.209v-5.355h4.209V569.726z M407.702,602.561v1.142h-2.42v-1.142H407.702z M405.281,601.099v-1.142h2.42v1.142H405.281z
			 M407.702,605.166v1.144h-2.42v-1.144H407.702z M407.702,607.773v1.149h-2.42v-1.149H407.702z M407.702,626.019v1.147h-2.42
			v-1.147H407.702z M407.702,628.629v1.144h-2.42v-1.144H407.702z M407.702,631.239v1.143h-2.42v-1.143H407.702z M407.702,633.843
			v1.146h-2.42v-1.146H407.702z M407.702,641.662v1.151h-2.42v-1.151H407.702z M407.702,644.271v1.147h-2.42v-1.147H407.702z
			 M407.702,646.877v1.145h-2.42v-1.145H407.702z M407.702,649.482v1.145h-2.42v-1.145H407.702z M407.702,654.7v1.147h-2.42V654.7
			H407.702z M407.702,657.304v1.146h-2.42v-1.146H407.702z M422.03,573.581v1.147h-2.42v-1.147H422.03z M419.61,572.113v-1.147h2.42
			v1.147H419.61z M422.03,576.193v1.143h-2.42v-1.143H422.03z M422.03,578.804v1.146h-2.42v-1.146H422.03z M422.03,581.417v1.144
			h-2.42v-1.144H422.03z M422.03,584.026v1.146h-2.42v-1.146H422.03z M422.03,586.64v1.145h-2.42v-1.145H422.03z M422.03,589.25
			v1.146h-2.42v-1.146H422.03z M422.03,591.862v1.147h-2.42v-1.147H422.03z M422.03,594.476v1.148h-2.42v-1.148H422.03z
			 M422.03,597.085v1.147h-2.42v-1.147H422.03z M422.03,599.695v1.149h-2.42v-1.149H422.03z M422.03,602.309v1.149h-2.42v-1.149
			H422.03z M422.03,604.921v1.145h-2.42v-1.145H422.03z M422.03,607.534v1.147h-2.42v-1.147H422.03z M422.03,610.144v1.147h-2.42
			v-1.147H422.03z M422.03,612.756v1.145h-2.42v-1.145H422.03z M422.03,615.369v1.145h-2.42v-1.145H422.03z M422.03,617.979v1.149
			h-2.42v-1.149H422.03z M422.03,620.592v1.145h-2.42v-1.145H422.03z M422.03,623.204v1.149h-2.42v-1.149H422.03z M422.03,625.814
			v1.149h-2.42v-1.149H422.03z M422.03,628.427v1.147h-2.42v-1.147H422.03z M422.03,631.04v1.143h-2.42v-1.143H422.03z
			 M422.03,633.651v1.146h-2.42v-1.146H422.03z M422.03,636.262v1.144h-2.42v-1.144H422.03z M422.03,638.872v1.151h-2.42v-1.151
			H422.03z M422.03,641.487v1.145h-2.42v-1.145H422.03z M422.03,644.095v1.148h-2.42v-1.148H422.03z M422.03,646.71v1.143h-2.42
			v-1.143H422.03z M422.03,649.322v1.145h-2.42v-1.145H422.03z M422.03,651.93v1.149h-2.42v-1.149H422.03z M422.03,654.546v1.148
			h-2.42v-1.148H422.03z M422.03,657.155v1.149h-2.42v-1.149H422.03z M422.03,659.768v1.147h-2.42v-1.147H422.03z M429.94,708.608
			v-1.531h6.019v1.531H429.94z M435.959,710.56v1.549h-6.019v-1.549H435.959z M429.94,705.111v-1.548h6.019v1.548H429.94z
			 M429.94,701.936v-1.547h6.019v1.547H429.94z M426.934,694.032v-0.966l0.481-0.088h24.806v0.965l-0.481,0.089H426.934z
			 M451.739,691.781h-24.805v-0.967l0.481-0.086h24.806v0.963L451.739,691.781z M451.739,689.529h-24.805v-0.962l0.481-0.091h24.806
			v0.963L451.739,689.529z M451.739,687.277h-24.805v-0.966l0.481-0.081h24.806v0.965L451.739,687.277z M423.747,569.219v-5.358
			h5.23v5.358H423.747z M766.824,699.801v1.944h-4.344v-1.944H766.824z M762.48,698.258v-1.946h4.344v1.946H762.48z
			 M766.824,703.288v1.948h-4.344v-1.948H766.824z M766.824,706.778v1.943h-4.344v-1.943H766.824z M766.824,710.266v1.943h-4.344
			v-1.943H766.824z M766.824,713.753v1.941h-4.344v-1.941H766.824z M766.824,717.239v1.948h-4.344v-1.948H766.824z M766.824,720.729
			v1.943h-4.344v-1.943H766.824z M766.824,724.214v1.945h-4.344v-1.945H766.824z M766.824,727.703v1.948h-4.344v-1.948H766.824z
			 M902.976,671.489h4.076v1.787h-4.076V671.489z M902.976,675.692h4.076v1.785h-4.076V675.692z M902.976,679.898h4.076v1.786
			h-4.076V679.898z M902.976,688.307h4.076v1.782h-4.076V688.307z M902.976,692.508h4.076v1.786h-4.076V692.508z M902.976,696.715
			h4.076v1.788h-4.076V696.715z M896.607,667.283h4.078v1.784h-4.078V667.283z M896.607,671.489h4.078v1.787h-4.078V671.489z
			 M896.607,679.898h4.078v1.786h-4.078V679.898z M896.607,684.099h4.078v1.787h-4.078V684.099z M896.607,688.307h4.078v1.782
			h-4.078V688.307z M896.607,692.508h4.078v1.786h-4.078V692.508z M896.607,700.919h4.078v1.785h-4.078V700.919z M896.607,705.125
			h4.078v1.782h-4.078V705.125z M893.547,715.955h1.531v3.309h-1.531V715.955z M889.724,715.955h1.531v3.309h-1.531V715.955z
			 M889.724,720.666h1.531v3.313h-1.531V720.666z M885.906,715.955h1.529v3.309h-1.529V715.955z M885.906,720.666h1.529v3.313
			h-1.529V720.666z M885.906,725.376h1.529v3.314h-1.529V725.376z M882.082,715.955h1.53v3.309h-1.53V715.955z M882.082,720.666
			h1.53v3.313h-1.53V720.666z M882.082,725.376h1.53v3.314h-1.53V725.376z M882.082,730.094h1.53v3.313h-1.53V730.094z
			 M882.082,734.809h1.53v3.313h-1.53V734.809z M882.082,739.52h1.53v3.315h-1.53V739.52z M859.732,665.156h1.486v2.055h-1.486
			V665.156z M859.732,671.616h1.486v2.626h-1.486V671.616z M857.16,665.156h1.486v2.055h-1.486V665.156z M857.16,668.014h1.486
			v2.625h-1.486V668.014z M857.16,671.616h1.486v2.626h-1.486V671.616z M854.185,671.616h1.487v2.626h-1.487V671.616z
			 M854.185,674.988h1.487v2.629h-1.487V674.988z M851.214,671.616h1.486v2.626h-1.486V671.616z M851.214,674.988h1.486v2.629
			h-1.486V674.988z M851.214,678.36h1.486v2.632h-1.486V678.36z M851.214,681.734h1.486v2.63h-1.486V681.734z M851.214,685.109
			h1.486v2.629h-1.486V685.109z M851.214,688.481h1.486v2.629h-1.486V688.481z M851.214,691.856h1.486v2.629h-1.486V691.856z
			 M851.214,695.228h1.486v2.627h-1.486V695.228z M851.214,698.602h1.486v2.625h-1.486V698.602z M851.214,701.97h1.486v2.635h-1.486
			V701.97z M851.214,705.347h1.486v2.627h-1.486V705.347z M851.214,708.721h1.486v2.629h-1.486V708.721z M851.214,712.093h1.486
			v2.629h-1.486V712.093z M851.214,715.468h1.486v2.627h-1.486V715.468z M851.214,718.84h1.486v2.632h-1.486V718.84z
			 M851.214,722.212h1.486v2.627h-1.486V722.212z M851.214,725.587h1.486v2.629h-1.486V725.587z M851.214,728.957h1.486v2.634
			h-1.486V728.957z M779.633,703.175h1.599v1.602h-1.599V703.175z M779.633,706.832h1.599v1.604h-1.599V706.832z M779.633,710.493
			h1.599v1.606h-1.599V710.493z M779.633,714.152h1.599v1.604h-1.599V714.152z M779.633,717.812h1.599v1.601h-1.599V717.812z
			 M779.633,721.472h1.599v1.599h-1.599V721.472z M779.633,725.128h1.599v1.6h-1.599V725.128z M766.824,694.771h-4.344v-1.946h4.344
			V694.771z M762.475,689.34h4.292v1.94h-4.292V689.34z M749.964,689.34h4.116v1.94h-4.116V689.34z M749.786,692.825h4.344v1.946
			h-4.344V692.825z M749.786,696.312h4.344v1.946h-4.344V696.312z M749.786,699.801h4.344v1.944h-4.344V699.801z M749.786,703.288
			h4.344v1.948h-4.344V703.288z M749.786,706.778h4.344v1.943h-4.344V706.778z M749.786,710.266h4.344v1.943h-4.344V710.266z
			 M749.786,713.753h4.344v1.941h-4.344V713.753z M749.786,717.239h4.344v1.948h-4.344V717.239z M749.786,720.729h4.344v1.943
			h-4.344V720.729z M749.786,724.214h4.344v1.945h-4.344V724.214z M749.786,727.703h4.344v1.948h-4.344V727.703z M738.433,668.477
			h2.608v2.607h-2.608V668.477z M738.433,675.495h2.608v2.611h-2.608V675.495z M738.433,682.518h2.608v2.609h-2.608V682.518z
			 M738.433,689.539h2.608v2.609h-2.608V689.539z M734.922,668.477h2.604v2.607h-2.604V668.477z M734.922,671.987h2.604v2.607
			h-2.604V671.987z M734.922,682.518h2.604v2.609h-2.604V682.518z M734.922,686.026h2.604v2.61h-2.604V686.026z M731.413,671.987
			h2.606v2.607h-2.606V671.987z M731.413,679.01h2.606v2.604h-2.606V679.01z M731.413,682.518h2.606v2.609h-2.606V682.518z
			 M727.9,668.477h2.611v2.607H727.9V668.477z M727.9,675.495h2.611v2.611H727.9V675.495z M724.388,668.477h2.608v2.607h-2.608
			V668.477z M724.388,671.987h2.608v2.607h-2.608V671.987z M720.881,668.477h2.608v2.607h-2.608V668.477z M717.37,671.987h2.606
			v2.607h-2.606V671.987z M710.348,668.477h2.605v2.607h-2.605V668.477z M692.417,660.344h1.487v1.323h-1.487V660.344z
			 M692.417,663.183h1.487v1.323h-1.487V663.183z M692.417,666.02h1.487v1.327h-1.487V666.02z M692.417,669.276h1.487v1.325h-1.487
			V669.276z M692.417,672.111h1.487v1.329h-1.487V672.111z M692.417,674.952h1.487v1.322h-1.487V674.952z M692.417,678.206h1.487
			v1.325h-1.487V678.206z M692.417,681.046h1.487v1.323h-1.487V681.046z M692.417,683.886h1.487v1.322h-1.487V683.886z
			 M692.417,687.138h1.487v1.324h-1.487V687.138z M692.417,689.978h1.487v1.323h-1.487V689.978z M692.417,692.815h1.487v1.325
			h-1.487V692.815z M692.417,696.073h1.487v1.322h-1.487V696.073z M692.417,698.91h1.487v1.325h-1.487V698.91z M692.417,701.745
			h1.487v1.327h-1.487V701.745z M692.417,705.001h1.487v1.326h-1.487V705.001z M692.417,707.84h1.487v1.323h-1.487V707.84z
			 M692.417,710.68h1.487v1.323h-1.487V710.68z M692.417,713.933h1.487v1.322h-1.487V713.933z M692.417,716.773h1.487v1.323h-1.487
			V716.773z M692.417,719.612h1.487v1.323h-1.487V719.612z M688.436,660.344h1.487v1.323h-1.487V660.344z M688.436,663.183h1.487
			v1.323h-1.487V663.183z M688.436,666.02h1.487v1.327h-1.487V666.02z M688.436,669.276h1.487v1.325h-1.487V669.276z
			 M688.436,672.111h1.487v1.329h-1.487V672.111z M688.436,674.952h1.487v1.322h-1.487V674.952z M688.436,678.206h1.487v1.325
			h-1.487V678.206z M688.436,681.046h1.487v1.323h-1.487V681.046z M688.436,683.886h1.487v1.322h-1.487V683.886z M688.436,687.138
			h1.487v1.324h-1.487V687.138z M688.436,689.978h1.487v1.323h-1.487V689.978z M688.436,692.815h1.487v1.325h-1.487V692.815z
			 M688.436,696.073h1.487v1.322h-1.487V696.073z M688.436,698.91h1.487v1.325h-1.487V698.91z M688.436,701.745h1.487v1.327h-1.487
			V701.745z M688.436,705.001h1.487v1.326h-1.487V705.001z M688.436,707.84h1.487v1.323h-1.487V707.84z M688.436,710.68h1.487v1.323
			h-1.487V710.68z M688.436,713.933h1.487v1.322h-1.487V713.933z M688.436,716.773h1.487v1.323h-1.487V716.773z M688.436,719.612
			h1.487v1.323h-1.487V719.612z M684.462,660.344h1.481v1.323h-1.481V660.344z M684.462,663.183h1.481v1.323h-1.481V663.183z
			 M684.462,666.02h1.481v1.327h-1.481V666.02z M684.462,669.276h1.481v1.325h-1.481V669.276z M684.462,672.111h1.481v1.329h-1.481
			V672.111z M684.462,674.952h1.481v1.322h-1.481V674.952z M684.462,678.206h1.481v1.325h-1.481V678.206z M684.462,681.046h1.481
			v1.323h-1.481V681.046z M684.462,683.886h1.481v1.322h-1.481V683.886z M684.462,687.138h1.481v1.324h-1.481V687.138z
			 M684.462,689.978h1.481v1.323h-1.481V689.978z M684.462,692.815h1.481v1.325h-1.481V692.815z M684.462,696.073h1.481v1.322
			h-1.481V696.073z M684.462,698.91h1.481v1.325h-1.481V698.91z M684.462,701.745h1.481v1.327h-1.481V701.745z M684.462,705.001
			h1.481v1.326h-1.481V705.001z M684.462,707.84h1.481v1.323h-1.481V707.84z M684.462,710.68h1.481v1.323h-1.481V710.68z
			 M684.462,713.933h1.481v1.322h-1.481V713.933z M684.462,716.773h1.481v1.323h-1.481V716.773z M684.462,719.612h1.481v1.323
			h-1.481V719.612z M680.48,660.344h1.484v1.323h-1.484V660.344z M680.48,663.183h1.484v1.323h-1.484V663.183z M680.48,666.02h1.484
			v1.327h-1.484V666.02z M680.48,669.276h1.484v1.325h-1.484V669.276z M680.48,672.111h1.484v1.329h-1.484V672.111z M680.48,674.952
			h1.484v1.322h-1.484V674.952z M680.48,678.206h1.484v1.325h-1.484V678.206z M680.48,681.046h1.484v1.323h-1.484V681.046z
			 M680.48,683.886h1.484v1.322h-1.484V683.886z M680.48,687.138h1.484v1.324h-1.484V687.138z M680.48,689.978h1.484v1.323h-1.484
			V689.978z M680.48,692.815h1.484v1.325h-1.484V692.815z M680.48,696.073h1.484v1.322h-1.484V696.073z M680.48,698.91h1.484v1.325
			h-1.484V698.91z M680.48,701.745h1.484v1.327h-1.484V701.745z M680.48,705.001h1.484v1.326h-1.484V705.001z M680.48,707.84h1.484
			v1.323h-1.484V707.84z M680.48,710.68h1.484v1.323h-1.484V710.68z M680.48,713.933h1.484v1.322h-1.484V713.933z M680.48,716.773
			h1.484v1.323h-1.484V716.773z M680.48,719.612h1.484v1.323h-1.484V719.612z M676.501,660.344h1.485v1.323h-1.485V660.344z
			 M676.501,663.183h1.485v1.323h-1.485V663.183z M676.501,666.02h1.485v1.327h-1.485V666.02z M676.501,669.276h1.485v1.325h-1.485
			V669.276z M676.501,672.111h1.485v1.329h-1.485V672.111z M676.501,674.952h1.485v1.322h-1.485V674.952z M676.501,678.206h1.485
			v1.325h-1.485V678.206z M676.501,681.046h1.485v1.323h-1.485V681.046z M676.501,683.886h1.485v1.322h-1.485V683.886z
			 M676.501,687.138h1.485v1.324h-1.485V687.138z M676.501,689.978h1.485v1.323h-1.485V689.978z M676.501,692.815h1.485v1.325
			h-1.485V692.815z M676.501,696.073h1.485v1.322h-1.485V696.073z M676.501,698.91h1.485v1.325h-1.485V698.91z M676.501,701.745
			h1.485v1.327h-1.485V701.745z M676.501,705.001h1.485v1.326h-1.485V705.001z M676.501,707.84h1.485v1.323h-1.485V707.84z
			 M676.501,710.68h1.485v1.323h-1.485V710.68z M676.501,713.933h1.485v1.322h-1.485V713.933z M676.501,716.773h1.485v1.323h-1.485
			V716.773z M676.501,719.612h1.485v1.323h-1.485V719.612z M672.518,660.344h1.487v1.323h-1.487V660.344z M672.518,663.183h1.487
			v1.323h-1.487V663.183z M672.518,666.02h1.487v1.327h-1.487V666.02z M672.518,669.276h1.487v1.325h-1.487V669.276z
			 M672.518,672.111h1.487v1.329h-1.487V672.111z M672.518,674.952h1.487v1.322h-1.487V674.952z M672.518,678.206h1.487v1.325
			h-1.487V678.206z M672.518,681.046h1.487v1.323h-1.487V681.046z M672.518,683.886h1.487v1.322h-1.487V683.886z M672.518,687.138
			h1.487v1.324h-1.487V687.138z M672.518,689.978h1.487v1.323h-1.487V689.978z M672.518,692.815h1.487v1.325h-1.487V692.815z
			 M672.518,696.073h1.487v1.322h-1.487V696.073z M672.518,698.91h1.487v1.325h-1.487V698.91z M672.518,701.745h1.487v1.327h-1.487
			V701.745z M672.518,705.001h1.487v1.326h-1.487V705.001z M672.518,707.84h1.487v1.323h-1.487V707.84z M672.518,710.68h1.487v1.323
			h-1.487V710.68z M672.518,713.933h1.487v1.322h-1.487V713.933z M672.518,716.773h1.487v1.323h-1.487V716.773z M672.518,719.612
			h1.487v1.323h-1.487V719.612z M668.542,660.344h1.486v1.323h-1.486V660.344z M668.542,663.183h1.486v1.323h-1.486V663.183z
			 M668.542,666.02h1.486v1.327h-1.486V666.02z M668.542,669.276h1.486v1.325h-1.486V669.276z M668.542,672.111h1.486v1.329h-1.486
			V672.111z M668.542,674.952h1.486v1.322h-1.486V674.952z M668.542,678.206h1.486v1.325h-1.486V678.206z M668.542,681.046h1.486
			v1.323h-1.486V681.046z M668.542,683.886h1.486v1.322h-1.486V683.886z M668.542,687.138h1.486v1.324h-1.486V687.138z
			 M668.542,689.978h1.486v1.323h-1.486V689.978z M668.542,692.815h1.486v1.325h-1.486V692.815z M668.542,696.073h1.486v1.322
			h-1.486V696.073z M668.542,698.91h1.486v1.325h-1.486V698.91z M668.542,701.745h1.486v1.327h-1.486V701.745z M668.542,705.001
			h1.486v1.326h-1.486V705.001z M668.542,707.84h1.486v1.323h-1.486V707.84z M668.542,710.68h1.486v1.323h-1.486V710.68z
			 M668.542,713.933h1.486v1.322h-1.486V713.933z M668.542,716.773h1.486v1.323h-1.486V716.773z M668.542,719.612h1.486v1.323
			h-1.486V719.612z M640.782,630.847h3.311v2.038h-3.311V630.847z M640.782,634.161h3.311v2.039h-3.311V634.161z M640.782,637.473
			h3.311v2.038h-3.311V637.473z M640.782,640.786h3.311v2.036h-3.311V640.786z M640.782,644.095h3.311v2.04h-3.311V644.095z
			 M640.782,647.408h3.311v2.041h-3.311V647.408z M623.686,669.693h25.287v1.11h-25.287V669.693z M623.686,671.606h25.287v1.113
			h-25.287V671.606z M623.686,673.52h25.287v1.112h-25.287V673.52z M623.686,675.432h25.287v1.112h-25.287V675.432z
			 M623.686,677.347h25.287v1.111h-25.287V677.347z M623.686,679.257h25.287v1.112h-25.287V679.257z M623.686,681.171h25.287v1.112
			h-25.287V681.171z M623.686,683.079h25.287v1.112h-25.287V683.079z M623.686,684.996h25.287v1.112h-25.287V684.996z
			 M623.686,686.91h25.287v1.112h-25.287V686.91z M623.686,692.073h25.287v1.113h-25.287V692.073z M623.686,693.987h25.287v1.112
			h-25.287V693.987z M623.686,695.903h25.287v1.107h-25.287V695.903z M623.686,697.814h25.287v1.111h-25.287V697.814z
			 M623.686,699.726h25.287v1.112h-25.287V699.726z M623.686,701.638h25.287v1.112h-25.287V701.638z M623.686,703.553h25.287v1.108
			h-25.287V703.553z M623.686,705.46h25.287v1.112h-25.287V705.46z M623.686,707.376h25.287v1.112h-25.287V707.376z
			 M623.686,709.292h25.287v1.111h-25.287V709.292z M539.974,670.06h0.963l0.065,0.479v34.253h-1.028V670.06z M539.357,670.539
			v34.253h-1.026V670.06h0.964L539.357,670.539z M537.597,645.98h1.043v1.544h-1.043V645.98z M537.597,649.013h1.043v1.545h-1.043
			V649.013z M537.597,652.05h1.043v1.541h-1.043V652.05z M537.597,655.085h1.043v1.535h-1.043V655.085z M537.597,658.115h1.043
			v1.545h-1.043V658.115z M536.684,670.06h0.964l0.064,0.479v34.253h-1.028V670.06z M535.042,670.06h0.964l0.064,0.479v25.547
			h-1.028V670.06z M533.396,670.06h0.964l0.064,0.479v25.547h-1.028V670.06z M525.94,630.451h1.167v1.043h-1.167V630.451z
			 M525.94,632.682h1.167v1.043h-1.167V632.682z M525.94,634.912h1.167v1.041h-1.167V634.912z M522.816,630.451h1.167v1.043h-1.167
			V630.451z M522.816,632.682h1.167v1.043h-1.167V632.682z M522.816,634.912h1.167v1.041h-1.167V634.912z M519.691,630.451h1.163
			v1.043h-1.163V630.451z M519.691,632.682h1.163v1.043h-1.163V632.682z M519.691,634.912h1.163v1.041h-1.163V634.912z
			 M516.564,630.451h1.166v1.043h-1.166V630.451z M516.564,632.682h1.166v1.043h-1.166V632.682z M516.564,634.912h1.166v1.041
			h-1.166V634.912z M513.438,630.451h1.167v1.043h-1.167V630.451z M513.438,632.682h1.167v1.043h-1.167V632.682z M513.438,634.912
			h1.167v1.041h-1.167V634.912z M510.312,630.451h1.168v1.043h-1.168V630.451z M510.312,632.682h1.168v1.043h-1.168V632.682z
			 M510.312,634.912h1.168v1.041h-1.168V634.912z M507.186,630.451h1.167v1.043h-1.167V630.451z M507.186,632.682h1.167v1.043
			h-1.167V632.682z M507.186,634.912h1.167v1.041h-1.167V634.912z M504.058,630.451h1.168v1.043h-1.168V630.451z M504.058,632.682
			h1.168v1.043h-1.168V632.682z M504.058,634.912h1.168v1.041h-1.168V634.912z M504.058,637.143h1.168v1.041h-1.168V637.143z
			 M504.058,639.371h1.168v1.041h-1.168V639.371z M500.935,630.451h1.165v1.043h-1.165V630.451z M500.935,632.682h1.165v1.043
			h-1.165V632.682z M500.935,634.912h1.165v1.041h-1.165V634.912z M500.935,637.143h1.165v1.041h-1.165V637.143z M500.935,639.371
			h1.165v1.041h-1.165V639.371z M500.935,641.6h1.165v1.043h-1.165V641.6z M500.935,643.831h1.165v1.043h-1.165V643.831z
			 M500.935,646.061h1.165v1.038h-1.165V646.061z M493.501,587.303h1.127h0.094h1.125v67.401h-1.125h-0.094h-1.127V587.303z
			 M491.149,587.303h1.219v63.839h-1.219V587.303z M488.894,587.303h1.221v62.626h-1.221V587.303z M487.542,587.303h1.22v61.863
			h-1.22V587.303z M476.417,666.393h2.032v2.162h-2.032V666.393z M476.417,671.029h2.032v2.162h-2.032V671.029z M476.417,675.667
			h2.032v2.162h-2.032V675.667z M476.417,680.985h2.032v2.166h-2.032V680.985z M476.417,685.623h2.032v2.166h-2.032V685.623z
			 M476.417,690.259h2.032v2.166h-2.032V690.259z M476.417,695.579h2.032v2.166h-2.032V695.579z M476.417,700.215h2.032v2.166
			h-2.032V700.215z M476.417,704.853h2.032v2.163h-2.032V704.853z M476.417,710.17h2.032v2.164h-2.032V710.17z M476.417,714.808
			h2.032v2.163h-2.032V714.808z M476.417,719.448h2.032v2.162h-2.032V719.448z M476.417,724.763h2.032v2.167h-2.032V724.763z
			 M476.417,729.403h2.032v2.167h-2.032V729.403z M476.417,734.042h2.032v2.162h-2.032V734.042z M476.417,739.357h2.032v2.164
			h-2.032V739.357z M470.973,666.393h2.031v2.162h-2.031V666.393z M470.973,671.029h2.031v2.162h-2.031V671.029z M470.973,675.667
			h2.031v2.162h-2.031V675.667z M470.973,680.985h2.031v2.166h-2.031V680.985z M470.973,685.623h2.031v2.166h-2.031V685.623z
			 M470.973,690.259h2.031v2.166h-2.031V690.259z M470.973,695.579h2.031v2.166h-2.031V695.579z M470.973,700.215h2.031v2.166
			h-2.031V700.215z M470.973,704.853h2.031v2.163h-2.031V704.853z M470.973,710.17h2.031v2.164h-2.031V710.17z M470.973,714.808
			h2.031v2.163h-2.031V714.808z M470.973,719.448h2.031v2.162h-2.031V719.448z M470.973,724.763h2.031v2.167h-2.031V724.763z
			 M470.973,729.403h2.031v2.167h-2.031V729.403z M470.973,734.042h2.031v2.162h-2.031V734.042z M470.973,739.357h2.031v2.164
			h-2.031V739.357z M465.528,666.393h2.034v2.162h-2.034V666.393z M465.528,671.029h2.034v2.162h-2.034V671.029z M465.528,675.667
			h2.034v2.162h-2.034V675.667z M465.528,680.985h2.034v2.166h-2.034V680.985z M465.528,685.623h2.034v2.166h-2.034V685.623z
			 M465.528,690.259h2.034v2.166h-2.034V690.259z M465.528,695.579h2.034v2.166h-2.034V695.579z M465.528,700.215h2.034v2.166
			h-2.034V700.215z M465.528,704.853h2.034v2.163h-2.034V704.853z M465.528,710.17h2.034v2.164h-2.034V710.17z M465.528,714.808
			h2.034v2.163h-2.034V714.808z M465.528,719.448h2.034v2.162h-2.034V719.448z M465.528,724.763h2.034v2.167h-2.034V724.763z
			 M465.528,729.403h2.034v2.167h-2.034V729.403z M465.528,734.042h2.034v2.162h-2.034V734.042z M465.528,739.357h2.034v2.164
			h-2.034V739.357z M460.083,666.393h2.034v2.162h-2.034V666.393z M460.083,671.029h2.034v2.162h-2.034V671.029z M460.083,675.667
			h2.034v2.162h-2.034V675.667z M460.083,680.985h2.034v2.166h-2.034V680.985z M460.083,685.623h2.034v2.166h-2.034V685.623z
			 M460.083,690.259h2.034v2.166h-2.034V690.259z M460.083,695.579h2.034v2.166h-2.034V695.579z M460.083,700.215h2.034v2.166
			h-2.034V700.215z M460.083,704.853h2.034v2.163h-2.034V704.853z M460.083,710.17h2.034v2.164h-2.034V710.17z M460.083,714.808
			h2.034v2.163h-2.034V714.808z M460.083,719.448h2.034v2.162h-2.034V719.448z M460.083,724.763h2.034v2.167h-2.034V724.763z
			 M460.083,729.403h2.034v2.167h-2.034V729.403z M460.083,734.042h2.034v2.162h-2.034V734.042z M460.083,739.357h2.034v2.164
			h-2.034V739.357z M444.261,664.483h7.7v1.744h-7.7V664.483z M444.261,668.716h7.7v1.742h-7.7V668.716z M444.261,673.4h7.7v1.724
			h-7.7V673.4z M444.261,678.045h7.7v1.744h-7.7V678.045z M452.22,683.975v0.965l-0.481,0.084h-24.805v-0.962l0.481-0.086H452.22z
			 M434.028,653.236v-1.146h2.419v1.146H434.028z M436.447,654.7v1.147h-2.419V654.7H436.447z M434.028,650.628v-1.145h2.419v1.145
			H434.028z M434.028,642.812v-1.151h2.419v1.151H434.028z M434.028,640.202v-1.146h2.419v1.146H434.028z M434.028,637.594v-1.144
			h2.419v1.144H434.028z M434.028,634.99v-1.146h2.419v1.146H434.028z M434.028,632.382v-1.143h2.419v1.143H434.028z
			 M434.028,619.391v-1.144h2.419v1.144H434.028z M434.028,614.181v-1.153h2.419v1.153H434.028z M434.028,611.571v-1.147h2.419
			v1.147H434.028z M434.028,608.963v-1.144h2.419v1.144H434.028z M434.028,603.703v-1.142h2.419v1.142H434.028z M434.028,601.099
			v-1.142h2.419v1.142H434.028z M434.342,599.156v-6.502h1.792v6.502H434.342z M433.93,569.726v-5.355h2.553v5.355H433.93z
			 M432.478,558.732h5.122v2.166l-5.122-0.105V558.732z M431.128,571.124h2.552v11.853h-2.552V571.124z M430.587,599.956h2.424
			v1.142h-2.424V599.956z M430.587,602.561h2.424v1.142h-2.424V602.561z M430.587,605.166h2.424v1.144h-2.424V605.166z
			 M430.587,607.773h2.424v1.149h-2.424V607.773z M430.587,626.019h2.424v1.147h-2.424V626.019z M430.587,628.629h2.424v1.144
			h-2.424V628.629z M430.587,631.239h2.424v1.143h-2.424V631.239z M430.587,633.843h2.424v1.146h-2.424V633.843z M430.587,636.45
			h2.424v1.144h-2.424V636.45z M430.587,639.055h2.424v1.146h-2.424V639.055z M430.587,641.662h2.424v1.151h-2.424V641.662z
			 M430.587,644.271h2.424v1.147h-2.424V644.271z M430.587,654.7h2.424v1.147h-2.424V654.7z M430.587,657.304h2.424v1.146h-2.424
			V657.304z M419.5,547.422h4.128v0.066H419.5V547.422z M418.257,548.691h6.301v0.062h-6.301V548.691z M417.059,549.955h8.674v0.062
			h-8.674V549.955z M415.907,551.22h10.91v0.066h-10.91V551.22z M414.678,552.486h13.296v0.066h-13.296V552.486z M413.411,553.753
			h15.646v0.063h-15.646V553.753z M412.672,560.952c0,0,1.653-3.109,7.901-3.738v-0.064c0.139,0.009,0.269,0.02,0.406,0.028
			c0.135-0.009,0.268-0.019,0.407-0.028v0.064c6.243,0.628,7.9,3.738,7.9,3.738v1.532l-5.384-0.064v-1.487h-1.179v-1.803h-1.337
			h-0.813h-1.335v1.803h-1.178v1.487l-5.388,0.064V560.952z M412.528,563.862h5.227v5.358h-5.227V563.862z M406.174,558.732h5.124
			v2.166l-5.124-0.105V558.732z M405.266,584.754h1.79v6.507h-1.79V584.754z M405.266,592.654h1.79v6.502h-1.79V592.654z
			 M378.522,645.82h1.217v38.27h-1.217V645.82z M375.369,642.685h1.217l-0.071,46.226l-1.217-0.017L375.369,642.685z
			 M372.209,639.734l1.217,0.01l-0.068,49.168l-1.219-0.017L372.209,639.734z M369.049,637.213h1.22l-0.068,51.698l-1.221-0.017
			L369.049,637.213z M365.826,707.36l0.071-72.987h1.215v0.479l-0.068,72.992h-1.218V707.36z M362.666,707.36l0.071-75.727h1.218
			v0.485l-0.071,75.727h-1.218V707.36z M359.513,707.36l0.068-78.038h1.217v0.479l-0.068,78.043h-1.217V707.36z M356.353,707.36
			l0.07-80.148h1.218v0.484l-0.07,80.149h-1.218V707.36z M353.197,707.36l0.067-82.988h1.221v0.483l-0.068,82.989h-1.22V707.36z
			 M350.04,707.36l0.068-85.513h1.219v0.483l-0.069,85.514h-1.218V707.36z M346.882,714.098l0.069-94.462h1.219v0.485l-0.071,94.465
			l-1.217-0.008V714.098z M343.725,710.834l0.068-93.302h1.221v0.481l-0.068,93.305h-1.221V710.834z M340.568,707.36l0.07-92.665
			h1.217v0.479l-0.069,92.671h-1.218V707.36z M315.381,503.958l6.618,0.124l-3.676,32.846c-0.736,7.355-2.942,10.785-2.942,10.785
			V503.958z M311.318,503.359h1.103v3.4h-1.188L311.318,503.359z M311.318,507.862h1.103v3.398h-1.188L311.318,507.862z
			 M311.318,512.364h1.103v3.396h-1.188L311.318,512.364z M311.318,516.864h1.103v3.397h-1.188L311.318,516.864z M311.318,521.367
			h1.103v3.397h-1.188L311.318,521.367z M311.318,525.867h1.103v3.399h-1.188L311.318,525.867z M311.318,530.369h1.103v3.396h-1.188
			L311.318,530.369z M311.318,534.868h1.103v3.399h-1.188L311.318,534.868z M305.211,637.857h-0.213v-1.532h-1.53v1.657h-1.843
			c0.951-12.2,3.586-49.208,3.586-49.208V637.857z M300.673,526.142c0,0-2.208-15.323-2.819-18.263c0,0-0.49-3.188-0.245-4.289
			l6.373,0.367v55.4C303.981,559.357,301.287,531.167,300.673,526.142z M297.928,665.739h0.775v6.737h-0.775V665.739z
			 M293.28,665.739h0.761v6.737h-0.761V665.739z M288.596,665.739h0.78v6.737h-0.78V665.739z M284.364,665.739h0.779v6.737h-0.779
			V665.739z M262.179,624.956h4.681v2.476h-4.681V624.956z M262.179,637.867h4.681v2.475h-4.681V637.867z M262.179,644.319h4.681
			v2.476h-4.681V644.319z M262.179,657.232h4.681v2.473h-4.681V657.232z M262.179,663.688h4.681v2.476h-4.681V663.688z
			 M240.781,624.956h6.153v2.476h-6.153V624.956z M240.781,650.634h6.153v2.474h-6.153V650.634z M240.781,657.05h6.153v2.476h-6.153
			V657.05z M240.781,666.678h6.153v2.475h-6.153V666.678z M234.765,624.956h4.678v2.476h-4.678V624.956z M234.765,628.164h4.678
			v2.476h-4.678V628.164z M234.765,634.584h4.678v2.475h-4.678V634.584z M234.765,641.004h4.678v2.475h-4.678V641.004z
			 M234.765,647.423h4.678v2.473h-4.678V647.423z M234.765,660.26h4.678v2.475h-4.678V660.26z M234.765,669.89h4.678v2.473h-4.678
			V669.89z"/>
	</g>
	<g>
		<polygon fill="#8EAEC7" points="919.523,720.459 921.729,720.459 919.523,718.349 		"/>
		<path fill="#212227" d="M559.619,656.926h-1.136v1.067h1.136v1.198h-1.136v1.04h2.269v1.323h9.108v2.418h2.675v22.551h9.297
			v-2.424h-0.763v-2.16h1.912v-5.61h1.401v-5.093h2.549v-1.658h3.566v-18.346h8.794v-2.674h5.094v1.273h1.527v-1.657h5.859v4.207
			h3.444l0.825,0.827h10.385v-6.305l3.822-0.132h2.929v-22.169l34.529-0.503v25.097h27.01v2.291h2.167v1.658h3.054v32.742h2.293
			v-19.11l-1.02-1.659l1.02-0.377v-4.334l-1.144-2.168h4.716v-1.017h2.674v-3.313h2.036v3.313h6.117v-6.498h12.105v6.623h12.865
			l-1.4,2.935v3.691h5.477l-1.783,3.823v18.728h13.25v-6.496h7.644v-1.275h3.694v0.761h2.548v6.882h16.433v8.534h8.879v-15.586
			h21.996v14.313h2.633v-5.986l-1.4-2.164c0,0,31.658,0.442,31.214,0c-0.445-0.448,0-8.443,0-8.443h-1.527v-2.674h1.655v-2.68
			h-1.145v-3.567h5.039c-66.524-47.592-90.56-65.938-103.963-74.993c-23.872-16.131-30.327-24.412-51.782-17.753
			c-17.849,5.541-106.377,61.27-139.439,80.681V656.926z"/>
	</g>
</g>
</svg>
